PathFileType	4	(X/Y/Z)	C:/Users/opensim2020/Desktop/walking_exp_matlab/subject03_walking14_straight_01.trc	
DataRate	CameraRate	NumFrames	NumMarkers	Units	OrigDataRate	OrigDataStartFrame	OrigNumFrames	
100.00	100.00	8	47	mm	100.00	578	205	
Frame#	Time	LFHD			RFHD			LBHD			RBHD			C7			T10			CLAV			STRN			RBAK			LSHO			LUPA			LELB			LFRM			LWRA			LWRB			LFIN			RSHO			RUPA			RELB			RFRM			RWRA			RWRB			RFIN			LASI			RASI			LPSI			RPSI			LTHI			LKNE			LTIB			LANK			LHEE			LTOE			RTHI			RKNE			RTIB			RANK			RHEE			RTOE			*39			*40			*41			*42			*43			*44			*45			*46			
		X1	Y1	Z1	X2	Y2	Z2	X3	Y3	Z3	X4	Y4	Z4	X5	Y5	Z5	X6	Y6	Z6	X7	Y7	Z7	X8	Y8	Z8	X9	Y9	Z9	X10	Y10	Z10	X11	Y11	Z11	X12	Y12	Z12	X13	Y13	Z13	X14	Y14	Z14	X15	Y15	Z15	X16	Y16	Z16	X17	Y17	Z17	X18	Y18	Z18	X19	Y19	Z19	X20	Y20	Z20	X21	Y21	Z21	X22	Y22	Z22	X23	Y23	Z23	X24	Y24	Z24	X25	Y25	Z25	X26	Y26	Z26	X27	Y27	Z27	X28	Y28	Z28	X29	Y29	Z29	X30	Y30	Z30	X31	Y31	Z31	X32	Y32	Z32	X33	Y33	Z33	X34	Y34	Z34	X35	Y35	Z35	X36	Y36	Z36	X37	Y37	Z37	X38	Y38	Z38	X39	Y39	Z39	X40	Y40	Z40	X41	Y41	Z41	X42	Y42	Z42	X43	Y43	Z43	X44	Y44	Z44	X45	Y45	Z45	X46	Y46	Z46	X47	Y47	Z47	

103	1.020	1384.30286	-87.59336	1614.47644	1517.23022	-99.97965	1613.50293	1376.23621	-212.10396	1562.29089	1507.37683	-220.24849	1561.43213	1427.40771	-243.45964	1401.30029	1429.01685	-270.14050	1088.75610	1436.49683	-119.60684	1331.14771	1430.57239	-68.34287	1166.86096	1511.80811	-295.08932	1220.49951	1280.59705	-157.64297	1369.89490	1198.29810	-118.36012	1188.18958	1183.62097	-67.78526	1079.30383	1204.00623	33.16137	1007.87122	1256.83044	123.91596	948.63342	1207.18054	113.37814	926.96643	1230.01501	186.83658	897.36316	1592.75940	-181.23572	1348.10156	1662.17126	-206.64307	1126.79395	1676.29980	-206.07968	1013.54681	1681.64880	-218.33066	876.41266	1650.65771	-208.77757	774.97485	1693.45886	-242.45813	778.52399	1683.84412	-237.92030	702.82343	1315.10632	-110.42110	924.76953	1552.69678	-101.60405	931.32996	1374.54041	-271.33002	946.37952	1521.52625	-265.83768	951.67389	1270.29993	-215.72159	634.51337	1296.81775	-257.78525	458.28769	1294.07117	-395.54971	308.70480	1331.86194	-516.34637	135.95763	1366.91577	-567.49127	126.85360	1363.93542	-403.36020	33.65294	1600.58557	-88.96156	640.91754	1556.87329	-20.61724	479.72849	1562.56470	-13.65046	286.22000	1520.06091	23.69223	71.98070	1466.34180	-16.95513	38.07534	1496.96472	165.12579	45.77179																								 
104	1.030	1384.84644	-74.13539	1615.82703	1517.88013	-86.01192	1615.32593	1377.45459	-198.72224	1564.04871	1508.55164	-206.15878	1563.58472	1429.69385	-230.09473	1402.92090	1430.47192	-255.59792	1089.96716	1437.76270	-106.18201	1333.01428	1431.67102	-54.16160	1168.90112	1514.06628	-280.84503	1221.45264	1281.86414	-145.67577	1371.50037	1199.64819	-107.61121	1189.26978	1185.01587	-57.89275	1080.02893	1205.02307	42.83099	1008.42700	1257.55542	133.84563	950.17938	1208.61877	122.97172	927.39447	1230.90723	196.98058	899.53015	1594.45422	-166.88467	1349.65454	1663.79370	-191.81903	1128.32898	1677.71045	-191.28314	1014.94733	1682.78296	-203.55592	877.80133	1651.66992	-194.16461	776.43896	1694.57385	-227.70752	779.91919	1684.64746	-223.43326	704.24451	1316.73743	-95.10213	925.87561	1554.10596	-86.13779	933.17078	1376.21509	-255.97070	947.28583	1523.27209	-249.97816	953.38751	1270.22192	-197.01886	634.46161	1294.21899	-236.49899	457.52402	1293.49426	-379.38815	311.98911	1332.61682	-506.45166	144.69887	1368.49011	-556.79242	139.15553	1364.15845	-402.32446	33.64703	1602.54004	-76.51841	642.36121	1558.49829	-8.91546	480.43680	1564.41821	-3.22000	287.00439	1520.14795	27.59107	72.14688	1467.22363	-14.39365	39.64708	1498.99890	168.84689	42.98383																								 
105	1.040	1385.54968	-60.67363	1617.33167	1518.53540	-72.10579	1617.16968	1378.64026	-185.43739	1565.87671	1509.66553	-192.13330	1565.75891	1431.87988	-216.51883	1404.58618	1432.32703	-241.19524	1091.29675	1439.01831	-92.72347	1334.95752	1432.71338	-39.92306	1171.16577	1516.70410	-266.43634	1222.81531	1283.22278	-133.78531	1373.38928	1201.15405	-96.83897	1190.70984	1186.31848	-48.46106	1080.77271	1206.01624	52.11824	1008.83319	1258.04175	143.24713	950.94000	1209.71765	131.70761	927.10706	1231.37305	206.17342	900.73236	1596.06824	-152.35240	1351.54102	1665.47961	-176.66820	1130.15283	1679.09717	-176.03546	1016.76855	1684.02771	-188.21959	879.58337	1652.56995	-178.84113	778.29047	1695.72290	-212.17529	781.67383	1685.42859	-208.16837	705.89044	1317.95996	-80.15762	927.08942	1555.42493	-70.80051	935.29193	1377.91113	-240.71114	948.22638	1524.99731	-234.24503	955.50989	1270.03381	-177.68022	634.26569	1291.71887	-213.91827	456.24396	1292.97498	-361.46414	315.45200	1333.68481	-494.20990	153.93130	1370.95740	-543.24530	152.29572	1364.61243	-400.95679	33.44180	1604.12439	-65.68123	643.34247	1559.78992	3.08281	481.31570	1565.56555	5.66366	287.51398	1519.74329	28.67750	72.19303	1467.20764	-13.92617	39.86493	1499.67029	169.89459	40.94008	1431.61389	-149.54636	1673.40894																					 
106	1.050	1386.19238	-47.29949	1618.76196	1519.03870	-58.38201	1618.84229	1379.83960	-172.20555	1567.66260	1510.83447	-178.46611	1567.88721	1434.06152	-203.00813	1406.35522	1434.37134	-226.87961	1092.75488	1440.17932	-79.24757	1336.83594	1433.71594	-25.83727	1173.28198	1519.66736	-252.01144	1224.53711	1284.74658	-121.93750	1375.44629	1202.86340	-86.12178	1192.21387	1187.93726	-39.22823	1081.82910	1206.90686	60.73146	1008.85999	1258.35657	151.91638	951.08429	1210.69324	139.68517	926.32678	1231.49316	214.54733	900.99969	1597.70215	-137.58922	1353.57874	1667.17432	-161.20076	1132.21326	1680.56140	-160.44081	1018.83856	1685.30920	-172.24960	881.63025	1653.62891	-162.89879	780.48370	1697.00977	-195.95499	783.62799	1686.39209	-191.98198	707.76703	1320.25391	-64.71125	928.98206	1556.52087	-55.81601	937.49152	1379.42969	-225.50024	949.31000	1526.59839	-218.87166	958.06683	1269.97742	-157.56654	633.79681	1289.14807	-189.87579	455.06757	1292.52417	-341.72446	318.87347	1334.77576	-479.12204	162.79584	1373.50049	-526.34558	165.30415	1365.62866	-398.80179	33.53342	1604.81641	-54.74205	644.27728	1560.62976	14.73010	482.15439	1566.18579	12.65650	287.48676	1519.21753	29.41284	72.39461	1467.41736	-13.89086	39.95440	1497.04407	170.79599	39.75191																								 
107	1.060	1386.79724	-33.93954	1620.22876	1519.77161	-44.57831	1620.53528	1380.94153	-158.96446	1569.39270	1512.00330	-165.03360	1569.80847	1436.19006	-189.47154	1407.84729	1436.37085	-212.53941	1094.06177	1441.43994	-65.61071	1338.64050	1434.68298	-11.82869	1175.24683	1522.73523	-237.40997	1226.25342	1286.40454	-110.13113	1377.41821	1204.61047	-75.62407	1193.69934	1189.70190	-30.28742	1082.76147	1207.86292	68.89612	1008.62274	1258.55591	160.13113	950.56250	1211.47241	147.07033	925.08826	1231.32043	222.17474	900.16772	1599.16736	-122.70975	1355.72974	1668.95496	-145.46170	1134.34229	1682.00024	-144.36945	1020.95160	1686.76221	-155.70193	883.80646	1654.67468	-146.39984	782.65820	1698.55615	-179.10017	785.67322	1687.32239	-175.18771	709.51190	1321.98767	-50.06557	930.41461	1557.55920	-41.12424	939.65448	1380.68396	-210.43822	950.43518	1527.90698	-203.86250	960.78857	1269.70691	-136.97572	633.17194	1287.27808	-164.79153	453.84302	1292.23315	-320.11118	322.16504	1334.93530	-461.32004	170.44019	1375.29346	-506.83649	178.32878	1367.24243	-397.54434	33.05362	1605.09094	-42.56053	645.56000	1561.06335	25.46605	482.65424	1565.84204	18.08311	287.76901	1518.41553	30.44883	72.57152	1467.33521	-13.71105	40.08305	1496.16772	171.63496	38.94460																								 
108	1.070	1387.38757	-20.68322	1621.32776	1520.40186	-30.96783	1621.95068	1381.99060	-145.81055	1570.81750	1513.08521	-151.57227	1571.51843	1438.29199	-176.10014	1409.08508	1438.36401	-198.51564	1095.40918	1442.51062	-52.06722	1340.06653	1435.48279	2.06272	1176.91199	1525.87317	-222.96916	1228.08875	1288.06555	-98.20860	1379.23035	1206.41748	-65.45856	1194.99719	1191.57666	-21.56803	1083.56604	1208.76343	76.90476	1008.14050	1258.77185	167.83611	949.29938	1212.11694	153.94891	923.42902	1230.93420	229.13023	898.30707	1600.59705	-107.71790	1357.72095	1670.77954	-129.55148	1136.41699	1683.58398	-128.10144	1023.03467	1688.25171	-138.71767	885.83032	1655.75891	-129.26843	784.71393	1700.01062	-161.47823	787.56305	1688.02295	-157.74438	711.05432	1323.97034	-35.73549	931.60339	1558.66162	-26.73936	941.74457	1381.53418	-195.93503	951.55670	1528.63330	-189.38110	963.63678	1269.71411	-116.12240	632.13293	1286.53711	-139.22978	452.50867	1292.71436	-296.69882	324.98486	1333.95447	-441.15701	176.81392	1374.73792	-485.50589	191.22578	1366.91528	-393.13132	35.15182	1606.05579	-29.25697	647.38806	1561.68762	34.94003	482.92804	1566.33948	22.80198	287.96146	1518.06860	30.85182	72.54868	1467.12585	-13.59627	40.17953	1496.65894	171.95586	38.43527																								 
109	1.080	1387.89685	-7.44092	1622.41736	1520.98511	-17.43146	1623.23950	1382.94897	-132.70914	1572.02063	1514.14734	-138.16100	1572.90247	1440.44312	-162.71846	1409.96082	1440.34790	-184.53465	1096.46814	1443.58997	-38.46757	1341.39160	1436.24500	15.81552	1178.36841	1528.93213	-208.43547	1229.80481	1289.63599	-86.40591	1380.76160	1208.08057	-55.47503	1195.95264	1193.42676	-13.22612	1084.12097	1209.70349	84.57073	1007.22705	1259.02222	175.41289	947.42822	1212.75293	160.63116	921.45758	1230.50452	235.62970	895.41345	1601.92725	-92.62241	1359.51196	1672.67273	-113.50323	1138.28564	1685.33130	-111.56641	1024.95752	1689.89636	-121.29198	887.66888	1657.08215	-111.46190	786.61951	1701.54883	-143.24365	789.13721	1689.26086	-139.51295	712.64575	1325.24915	-21.68961	932.61121	1559.84204	-12.67188	943.60565	1382.06689	-182.12117	952.54132	1529.23096	-175.48119	966.14758	1270.00317	-95.52485	630.78729	1286.35730	-113.09196	451.02063	1293.09741	-271.73911	327.23465	1333.10242	-420.24512	183.43359	1373.43018	-463.20456	203.24254	1365.96716	-382.88232	40.62816	1607.85730	-16.14377	649.33368	1562.81799	43.00403	482.96378	1567.04224	26.83008	288.00409	1518.50854	30.79237	72.75404	1467.14063	-13.68355	40.20063	1496.52380	172.03085	38.11846																								 
110	1.090	1388.32288	5.80159	1623.54919	1521.46228	-3.90055	1624.65088	1383.89075	-119.57369	1572.98206	1515.07263	-124.55202	1574.21155	1442.37170	-149.56555	1410.90393	1442.16492	-170.71245	1097.65320	1444.50244	-24.95558	1342.55042	1436.84058	29.36081	1179.62146	1531.91577	-193.82433	1231.40771	1291.14905	-74.51658	1382.00659	1209.83325	-46.14127	1196.51428	1195.22205	-4.84608	1084.10315	1210.58032	92.06958	1005.87189	1259.17041	182.50754	944.80719	1213.26208	166.97353	918.95569	1230.02734	241.59151	891.52863	1603.29285	-77.39300	1361.08911	1674.66577	-97.20276	1139.90784	1687.17346	-94.83172	1026.57104	1691.60632	-103.38738	889.20178	1658.50061	-92.93139	788.35022	1703.30945	-124.46969	790.47168	1690.98242	-120.27689	714.19031	1326.39429	-8.05697	933.40228	1560.97583	1.13592	945.25354	1382.44275	-168.35568	953.16766	1529.68982	-161.74771	968.15436	1270.37769	-75.57537	629.33472	1286.47632	-86.58598	449.35043	1292.35767	-245.78641	328.63211	1333.82971	-399.19293	191.30704	1374.40198	-441.67313	212.14890	1363.81604	-365.26691	47.09682	1609.91418	-4.55858	651.02856	1564.44360	49.74245	482.81912	1568.09106	30.28053	288.01477	1517.92798	30.27679	72.90440	1467.34241	-13.81096	40.33885	1496.57495	172.03120	37.90264																								 
